<svg version="1.1" viewBox="0.000000 0.000000 96.000000 96.000000" xmlns="http://www.w3.org/2000/svg" xmlns:xlink="http://www.w3.org/1999/xlink" id="Icons_Lock" overflow="hidden"><path d=" M 50.000000 69.199997 L 50.000000 74.500000 L 46.000000 74.500000 L 46.000000 69.199997 C 43.700001 68.400002 42.000000 66.199997 42.000000 63.500000 C 42.000000 60.200001 44.700001 57.500000 48.000000 57.500000 C 51.299999 57.500000 54.000000 60.200001 54.000000 63.500000 C 54.000000 66.099998 52.299999 68.300003 50.000000 69.199997 Z M 33.000000 32.500000 C 33.000000 24.200001 39.700001 17.500000 48.000000 17.500000 C 56.299999 17.500000 63.000000 24.200001 63.000000 32.500000 L 63.000000 43.599998 L 48.000000 42.500000 L 33.000000 43.599998 L 33.000000 32.500000 Z M 69.000000 44.000000 L 69.000000 32.500000 C 69.000000 20.900000 59.599998 11.500000 48.000000 11.500000 C 36.400002 11.500000 27.000000 20.900000 27.000000 32.500000 L 27.000000 44.000000 L 20.000000 44.500000 L 20.000000 82.500000 L 48.000000 84.500000 L 76.000000 82.500000 L 76.000000 44.500000 L 69.000000 44.000000 Z" stroke="#FFFFFF" stroke-width="1.000000" stroke-linecap="butt" stroke-opacity="1.000000" fill="#FFFFFF" fill-opacity="1.000000"/></svg>